name C:\Users\antoi\Documents\MyRepositories\upper-imu-dc\Results\main_tracking\Case_82\kinematics.mot
datacolumns 10
datarows 47
range 3.00000000 3.46000000
endheader 
time	clav_prot	clav_elev	scapula_abduction	scapula_elevation	scapula_upward_rot	scapula_winging	plane_elv	shoulder_elv	axial_rot	
          3.00000000	        -41.88143210	        -23.53389437	        -49.43226801	        -16.60612551	         -1.68394141	         15.86438365	        -29.83703443	         21.66835916	         80.84153677	
          3.01000000	        -41.94594412	        -23.38003501	        -49.44505714	        -16.68518201	         -1.50686899	         16.02997162	        -30.25555516	         21.70448178	         80.30867072	
          3.02000000	        -41.62784409	        -23.42894499	        -48.87021337	        -16.76485372	         -1.32045461	         16.19196280	        -30.66722213	         21.74848035	         79.78359050	
          3.03000000	        -41.31186129	        -23.48014259	        -48.29171491	        -16.84901286	         -1.12440605	         16.35153546	        -31.07801474	         21.79803170	         79.25314991	
          3.04000000	        -41.00118582	        -23.53437078	        -47.71341474	        -16.93913625	         -0.91624905	         16.50788531	        -31.49097181	         21.85054509	         78.71161288	
          3.05000000	        -40.69649865	        -23.59169222	        -47.13579698	        -17.03562776	         -0.69476113	         16.66079156	        -31.90665725	         21.90566416	         78.15768798	
          3.06000000	        -40.39772687	        -23.65186469	        -46.55825092	        -17.13851207	         -0.45897029	         16.81008463	        -32.32488203	         21.96366806	         77.59125572	
          3.07000000	        -40.10456934	        -23.71452955	        -45.97981806	        -17.24767122	         -0.20798468	         16.95557473	        -32.74527202	         22.02503887	         77.01248093	
          3.08000000	        -39.81669046	        -23.77928784	        -45.39948444	        -17.36292875	          0.05903913	         17.09703823	        -33.16746811	         22.09031872	         76.42151147	
          3.09000000	        -39.53378732	        -23.84573590	        -44.81629539	        -17.48408015	          0.34288281	         17.23422658	        -33.59119749	         22.16007804	         75.81839432	
          3.10000000	        -39.25561826	        -23.91348543	        -44.22941080	        -17.61090789	          0.64425123	         17.36687794	        -34.01630834	         22.23491109	         75.20304782	
          3.11000000	        -38.98201651	        -23.98217702	        -43.63813617	        -17.74319058	          0.96375938	         17.49472923	        -34.44278711	         22.31543653	         74.57525475	
          3.12000000	        -38.71289117	        -24.05148920	        -43.04193432	        -17.88070753	          1.30191780	         17.61752942	        -34.87076111	         22.40229880	         73.93467338	
          3.13000000	        -38.44821758	        -24.12114331	        -42.44042158	        -18.02323848	          1.65911544	         17.73505279	        -35.30048436	         22.49616852	         73.28086869	
          3.14000000	        -38.18801796	        -24.19090386	        -41.83334980	        -18.17055850	          2.03559958	         17.84711122	        -35.73230763	         22.59774160	         72.61336331	
          3.15000000	        -37.93233406	        -24.26057462	        -41.22057647	        -18.32242824	          2.43145371	         17.95356438	        -36.16663611	         22.70773724	         71.93170386	
          3.16000000	        -37.68119729	        -24.32999140	        -40.60203036	        -18.47858201	          2.84657693	         18.05432621	        -36.60388152	         22.82689294	         71.23553193	
          3.17000000	        -37.43459879	        -24.39901259	        -39.97767608	        -18.63871479	          3.28066565	         18.14936765	        -37.04441421	         22.95595706	         70.52465293	
          3.18000000	        -37.19246260	        -24.46750857	        -39.34748175	        -18.80246994	          3.73320004	         18.23871556	        -37.48852100	         23.09567937	         69.79909486	
          3.19000000	        -36.95462504	        -24.53535123	        -38.71139377	        -18.96942958	          4.20343737	         18.32244777	        -37.93637291	         23.24679969	         69.05915019	
          3.20000000	        -36.72082138	        -24.60240428	        -38.06931906	        -19.13910857	          4.69041442	         18.40068494	        -38.38800490	         23.41003580	         68.30539770	
          3.21000000	        -36.49068081	        -24.66851492	        -37.42111523	        -19.31095337	          5.19296133	         18.47357934	        -38.84330731	         23.58607082	         67.53870254	
          3.22000000	        -36.26373336	        -24.73350774	        -36.76659223	        -19.48434721	          5.70973034	         18.54130047	        -39.30202829	         23.77553778	         66.76019251	
          3.23000000	        -36.03941833	        -24.79717956	        -36.10551131	        -19.65861817	          6.23923310	         18.60402016	        -39.76378133	         23.97900728	         65.97122518	
          3.24000000	        -35.81709812	        -24.85929571	        -35.43758578	        -19.83305131	          6.77988938	         18.66189649	        -40.22805454	         24.19697594	         65.17334353	
          3.25000000	        -35.59609304	        -24.91959155	        -34.76250264	        -20.00691129	          7.33009762	         18.71505544	        -40.69423038	         24.42984680	         64.36820235	
          3.26000000	        -35.37570524	        -24.97777418	        -34.07992806	        -20.17946201	          7.88829901	         18.76357710	        -41.16160085	         24.67791981	         63.55750859	
          3.27000000	        -35.15524912	        -25.03352798	        -33.38952092	        -20.34998904	          8.45304198	         18.80748510	        -41.62938717	         24.94138219	         62.74295504	
          3.28000000	        -34.93407302	        -25.08652109	        -32.69093892	        -20.51781760	          9.02303108	         18.84674182	        -42.09675596	         25.22030761	         61.92617026	
          3.29000000	        -34.71158236	        -25.13641506	        -31.98385140	        -20.68232998	          9.59716514	         18.88124886	        -42.56284141	         25.51465888	         61.10866804	
          3.30000000	        -34.48725610	        -25.18287604	        -31.26795096	        -20.84297862	         10.17455599	         18.91085376	        -43.02677043	         25.82429891	         60.29180797	
          3.31000000	        -34.26065560	        -25.22558689	        -30.54296381	        -20.99929429	         10.75452642	         18.93536292	        -43.48768992	         26.14900936	         59.47676770	
          3.32000000	        -34.03142936	        -25.26426038	        -29.80866264	        -21.15089109	         11.33659211	         18.95455895	        -43.94479606	         26.48851281	         58.66452352	
          3.33000000	        -33.79931032	        -25.29865119	        -29.06487588	        -21.29746690	         11.92042906	         18.96822061	        -44.39736070	         26.84249778	         57.85584368	
          3.34000000	        -33.56411255	        -25.32856686	        -28.31149945	        -21.43880217	         12.50583677	         18.97614264	        -44.84475434	         27.21063966	         57.05128737	
          3.35000000	        -33.32572283	        -25.35387540	        -27.54850351	        -21.57475511	         13.09269709	         18.97815355	        -45.28645901	         27.59261815	         56.25121800	
          3.36000000	        -33.08409186	        -25.37451085	        -26.77593860	        -21.70525593	         13.68093504	         18.97413105	        -45.72207298	         27.98812861	         55.45582380	
          3.37000000	        -32.83922207	        -25.39047636	        -25.99393702	        -21.83029928	         14.27047946	         18.96401510	        -46.15130580	         28.39688956	         54.66514989	
          3.38000000	        -32.59115349	        -25.40184541	        -25.20271126	        -21.94993586	         14.86122550	         18.94781863	        -46.57396677	         28.81864671	         53.87913716	
          3.39000000	        -32.33994692	        -25.40876040	        -24.40254777	        -22.06426238	         15.45299818	         18.92563500	        -46.98994768	         29.25317394	         53.09766732	
          3.40000000	        -32.08566335	        -25.41142688	        -23.59379514	        -22.17340842	         16.04551747	         18.89764039	        -47.39919919	         29.70027163	         52.32061522	
          3.41000000	        -31.82834354	        -25.41010301	        -22.77685104	        -22.27752072	         16.63836754	         18.86408943	        -47.80169782	         30.15976191	         51.54790988	
          3.42000000	        -31.56799499	        -25.40508969	        -21.95215437	        -22.37675163	         17.23097877	         18.82530788	        -48.19741767	         30.63148393	         50.77958295	
          3.43000000	        -31.30460695	        -25.39673038	        -21.12019705	        -22.47126628	         17.82265220	         18.78168618	        -48.58635283	         31.11527728	         50.01572791	
          3.44000000	        -31.03811988	        -25.38539095	        -20.28149286	        -22.56121985	         18.41253366	         18.73366359	        -48.96848353	         31.61097733	         49.25657027	
          3.45000000	        -30.76834272	        -25.37141185	        -19.43650051	        -22.64669758	         18.99952863	         18.68169372	        -49.34365276	         32.11844598	         48.50266298	
          3.46000000	        -30.49508768	        -25.35516643	        -18.58571344	        -22.72781471	         19.58250936	         18.62626247	        -49.71175128	         32.63755382	         47.75453204	
